<?xml version="1.0" encoding="UTF-8" standalone="no"?>
<!-- Created with Inkscape (http://www.inkscape.org/) -->

<svg
   xmlns:dc="http://purl.org/dc/elements/1.1/"
   xmlns:cc="http://creativecommons.org/ns#"
   xmlns:rdf="http://www.w3.org/1999/02/22-rdf-syntax-ns#"
   xmlns:svg="http://www.w3.org/2000/svg"
   xmlns="http://www.w3.org/2000/svg"
   xmlns:sodipodi="http://sodipodi.sourceforge.net/DTD/sodipodi-0.dtd"
   xmlns:inkscape="http://www.inkscape.org/namespaces/inkscape"
   id="svg2"
   version="1.1"
   inkscape:version="0.91 r13725"
   xml:space="preserve"
   width="245"
   height="90"
   viewBox="0 0 362.97501 133.10001"
   sodipodi:docname="clintonwilkins.svg"><metadata
     id="metadata8"><rdf:RDF><cc:Work
         rdf:about=""><dc:format>image/svg+xml</dc:format><dc:type
           rdf:resource="http://purl.org/dc/dcmitype/StillImage" /><dc:title></dc:title></cc:Work></rdf:RDF></metadata><defs
     id="defs6"><clipPath
       clipPathUnits="userSpaceOnUse"
       id="clipPath30"><path
         d="m 834.973,646.813 c 0,-228.497 -185.231,-413.711 -413.641,-413.711 -228.41,0 -413.66794,185.214 -413.66794,413.711 0,228.398 185.25794,413.637 413.66794,413.637 228.41,0 413.641,-185.239 413.641,-413.637 z"
         id="path32"
         inkscape:connector-curvature="0" /></clipPath><linearGradient
       x1="0"
       y1="0"
       x2="1"
       y2="0"
       gradientUnits="userSpaceOnUse"
       gradientTransform="matrix(0,827.344,827.344,0,421.318,233.1)"
       spreadMethod="pad"
       id="linearGradient34"><stop
         style="stop-opacity:1;stop-color:#a5a3a4"
         offset="0"
         id="stop36" /><stop
         style="stop-opacity:1;stop-color:#ffffff"
         offset="0.505618"
         id="stop38" /><stop
         style="stop-opacity:1;stop-color:#231f20"
         offset="0.85393132"
         id="stop40" /><stop
         style="stop-opacity:1;stop-color:#231f20"
         offset="1"
         id="stop42" /></linearGradient></defs><sodipodi:namedview
     pagecolor="#ffffff"
     bordercolor="#666666"
     borderopacity="1"
     objecttolerance="10"
     gridtolerance="10"
     guidetolerance="10"
     inkscape:pageopacity="0"
     inkscape:pageshadow="2"
     inkscape:window-width="1142"
     inkscape:window-height="661"
     id="namedview4"
     showgrid="false"
     inkscape:zoom="1.049659"
     inkscape:cx="181.4875"
     inkscape:cy="66.550003"
     inkscape:window-x="0"
     inkscape:window-y="28"
     inkscape:window-maximized="0"
     inkscape:current-layer="g10" /><g
     id="g10"
     inkscape:groupmode="layer"
     inkscape:label="ink_ext_XXXXXX"
     transform="matrix(1.25,0,0,-1.25,0,133.1)"><g
       id="g12"
       transform="scale(0.1,0.1)"><path
         d="m 1101.25,804 c 18.46,-6.738 28.75,-10.098 30.86,-10.098 5.49,0 9.9,2.168 13.21,6.512 3.32,4.348 5.4,8.887 6.24,13.684 l 11.97,0 0,-101.008 -10.84,0 c -10.44,21.816 -21.09,39.023 -31.94,51.601 -20.31,23.196 -43.3,34.817 -68.95,34.817 -29.07,0 -49.69,-12.481 -61.878,-37.461 -12.192,-24.942 -18.289,-58.477 -18.289,-100.508 0,-30.949 3.574,-56.418 10.75,-76.379 13.375,-37.41 38.207,-56.113 74.507,-56.113 22.23,0 42.91,6.191 62.05,18.555 10.97,7.187 23.91,18.632 38.83,34.394 l 12.87,-10.683 c -16.89,-18.77 -31.74,-32.333 -44.54,-40.743 -22.79,-14.968 -48.14,-22.48 -76,-22.48 -42.64,0 -78.389,12.656 -107.237,37.949 -31.953,27.988 -47.922,65.684 -47.922,113.039 0,46.973 15.293,85 45.875,114.102 28.747,27.285 63.964,40.918 105.684,40.918 18.04,0 36.29,-3.371 54.75,-10.098"
         style="fill:#231f20;fill-opacity:1;fill-rule:nonzero;stroke:none"
         id="path14"
         inkscape:connector-curvature="0" /><path
         d="m 1197.99,516.703 0,10.84 c 12.42,0.43 21.23,2.129 26.47,5.117 8.04,4.543 12.06,13.047 12.06,25.567 l 0,209.113 c 0,12.695 -4.16,21.23 -12.48,25.594 -4.81,2.668 -13.49,4.367 -26.05,5.07 l 0,10.859 249.14,0 0,-87.168 -11.04,0 c -5.47,27.852 -14.75,46.895 -27.86,57.168 -13.12,10.254 -36.99,15.41 -71.63,15.41 -13.18,0 -21.57,-1.386 -25.14,-4.121 -3.58,-2.734 -5.36,-8.203 -5.36,-16.347 l 0,-99.992 c 24.65,-0.282 41.34,4.16 50.07,13.332 8.73,9.16 15.42,25.918 20.08,50.261 l 11.03,0 0,-145.515 -11.03,0 c -3.11,24.578 -9.4,41.875 -18.92,51.902 -9.5,10.031 -26.58,15.051 -51.23,15.051 l 0,-104.66 c 0,-9.141 2.37,-15.391 7.06,-18.692 4.73,-3.289 14.38,-4.949 29.02,-4.949 27.57,0 50.08,5.32 67.52,15.984 17.44,10.645 32.91,30.625 46.41,59.953 l 11.97,0 -17.58,-89.777 -252.51,0"
         style="fill:#231f20;fill-opacity:1;fill-rule:nonzero;stroke:none"
         id="path16"
         inkscape:connector-curvature="0" /><path
         d="m 1486.93,527.543 c 15.79,0.43 25.98,3.488 30.55,9.199 4.57,5.703 6.85,14.094 6.85,25.215 l 0,204.973 c -13.05,14.804 -21.11,23.504 -24.16,26.093 -3.05,2.618 -7.23,4.278 -12.5,4.981 l 0,10.859 91.21,0 148.34,-180.343 2.11,0 0,126.847 c 0,14.629 -2.67,25.078 -8.01,31.348 -5.35,6.269 -16,10.039 -32.02,11.289 l 0,10.859 93.16,0 0,-10.859 c -13.54,-2.246 -22.6,-5.254 -27.17,-9.024 -4.59,-3.761 -6.88,-12.226 -6.88,-25.39 l 0,-254.746 -11.97,0 -190.08,231.062 -2.95,0 0,-169.707 c 0,-13.308 1.82,-22.715 5.47,-28.222 5.72,-8.907 17.51,-13.731 35.31,-14.434 l 0,-10.84 -97.26,0 0,10.84"
         style="fill:#231f20;fill-opacity:1;fill-rule:nonzero;stroke:none"
         id="path18"
         inkscape:connector-curvature="0" /><path
         d="m 1802.75,808.863 260.25,0 0.43,-87.168 -12.54,0 c -4.08,31.211 -15.76,52.344 -35.04,63.36 -10.84,6.074 -27.03,9.394 -48.55,9.961 l 0,-227.844 c 0,-15.899 2.77,-26.465 8.32,-31.699 5.57,-5.196 17.11,-7.813 34.69,-7.813 l 0,-10.957 -154.12,0 0,10.957 c 16.99,0 28.3,2.649 33.88,7.93 5.59,5.285 8.38,15.82 8.38,31.582 l 0,227.844 c -21.11,-0.567 -37.28,-3.887 -48.55,-9.961 -20.69,-11.289 -32.39,-32.422 -35.04,-63.36 l -12.54,0 0.43,87.168"
         style="fill:#231f20;fill-opacity:1;fill-rule:nonzero;stroke:none"
         id="path20"
         inkscape:connector-curvature="0" /><path
         d="m 2232.28,808.863 0,-10.859 c -16.7,-0.559 -27.87,-3.145 -33.48,-7.805 -5.6,-4.629 -8.41,-15.261 -8.41,-31.844 l 0,-144.914 c 0,-21.992 2.59,-38.992 7.81,-50.984 9.43,-22.258 27.52,-33.41 54.26,-33.41 33.22,0 55.68,12.344 67.36,37.012 6.48,13.535 9.73,32.5 9.73,56.894 l 0,132.414 c 0,15.469 -2.86,26.133 -8.54,31.981 -5.68,5.851 -16.82,9.406 -33.36,10.656 l 0,10.859 95.02,0 0,-10.859 c -13.83,-2.676 -22.95,-5.957 -27.38,-9.844 -4.46,-3.898 -6.66,-12.832 -6.66,-26.816 l 0,-138.242 c 0,-36.711 -8.87,-65.071 -26.6,-85.032 -17.74,-20 -45.59,-29.98 -83.6,-29.98 -49.67,0 -83.65,14.844 -101.93,44.57 -9.73,15.781 -14.57,36.113 -14.57,61.035 l 0,144.66 c 0,16.297 -2.15,26.583 -6.45,30.801 -4.31,4.199 -14.02,7.168 -29.1,8.848 l 0,10.859 145.9,0"
         style="fill:#231f20;fill-opacity:1;fill-rule:nonzero;stroke:none"
         id="path22"
         inkscape:connector-curvature="0" /><path
         d="m 2396.93,527.543 c 16.68,0.137 27.54,3.066 32.52,8.77 5,5.703 7.5,14.238 7.5,25.644 l 0,205.383 c 0,11.855 -2.83,19.629 -8.46,23.379 -5.66,3.711 -15.68,6.152 -30.08,7.285 l 0,10.859 109.14,0 84.95,-200.148 3.57,0 84.2,200.148 108.69,0 0,-10.859 c -14.43,-1.113 -24.24,-3.828 -29.51,-8.106 -5.26,-4.296 -7.89,-14.824 -7.89,-31.543 l 0,-191.152 c 0,-15.969 2.63,-26.445 7.89,-31.379 5.27,-4.961 15.08,-7.715 29.51,-8.281 l 0,-10.84 -142.89,0 0,10.84 c 12.75,0.43 22.36,2.559 28.85,6.426 6.44,3.867 9.66,12.304 9.66,25.371 l 0,211.359 -3.14,0 -105.82,-253.996 -11.97,0 -106.47,248.945 -1.89,-0.183 0,-195.266 c 0,-14.433 2.65,-24.98 7.99,-31.621 5.33,-6.66 17.13,-10.332 35.39,-11.035 l 0,-10.84 -101.74,0 0,10.84"
         style="fill:#231f20;fill-opacity:1;fill-rule:nonzero;stroke:none"
         id="path24"
         inkscape:connector-curvature="0" /><g
         id="g26"><g
           id="g28"
           clip-path="url(#clipPath30)"><path
             d="m 834.973,646.813 c 0,-228.497 -185.231,-413.711 -413.641,-413.711 -228.41,0 -413.66794,185.214 -413.66794,413.711 0,228.398 185.25794,413.637 413.66794,413.637 228.41,0 413.641,-185.239 413.641,-413.637"
             style="fill:url(#linearGradient34);fill-opacity:1;fill-rule:nonzero;stroke:none"
             id="path44"
             inkscape:connector-curvature="0" /></g></g><path
         d="M 418.039,1064.78 C 187.496,1064.78 0,877.32 0,646.813 0,416.313 187.496,228.754 418.039,228.754 648.492,228.754 836,416.313 836,646.813 836,877.32 648.492,1064.78 418.039,1064.78 Z m 409.25,-417.967 c 0,-225.735 -183.625,-409.29 -409.25,-409.29 -225.715,0 -409.31634,183.555 -409.31634,409.29 0,225.644 183.60134,409.217 409.31634,409.217 225.625,0 409.25,-183.573 409.25,-409.217"
         style="fill:#b1b0af;fill-opacity:1;fill-rule:nonzero;stroke:none"
         id="path46"
         inkscape:connector-curvature="0" /><path
         d="m 783.477,646.813 c 0,-201.848 -163.622,-365.5 -365.438,-365.5 -201.855,0 -365.4687,163.652 -365.4687,365.5 0,201.816 163.6137,365.447 365.4687,365.447 201.816,0 365.438,-163.631 365.438,-365.447"
         style="fill:#8e0a26;fill-opacity:1;fill-rule:nonzero;stroke:none"
         id="path48"
         inkscape:connector-curvature="0" /><path
         d="m 418.039,1024.84 c -208.437,0 -378.0468,-169.668 -378.0468,-378.027 0,-208.43 169.6098,-378.059 378.0468,-378.059 208.399,0 378.008,169.629 378.008,378.059 0,208.359 -169.609,378.027 -378.008,378.027 z M 770.934,646.813 c 0,-194.641 -158.332,-353.02 -352.895,-353.02 -194.621,0 -352.9101,158.379 -352.9101,353.02 0,194.57 158.2891,352.89 352.9101,352.89 194.563,0 352.895,-158.32 352.895,-352.89"
         style="fill:#ffffff;fill-opacity:1;fill-rule:nonzero;stroke:none"
         id="path50"
         inkscape:connector-curvature="0" /><path
         d="m 171.469,714.313 247.433,247.421 247.383,-247.421 -494.816,0"
         style="fill:#ffffff;fill-opacity:1;fill-rule:nonzero;stroke:none"
         id="path52"
         inkscape:connector-curvature="0" /><path
         d="m 503.023,424.957 c 11.911,0.281 12.821,1.707 18.047,4.305 8.5,4.375 12.754,12.785 12.754,25.273 l 0,204.27 c 0,12.324 -4.035,20.664 -12.133,24.851 -4.945,2.551 -6.066,4.114 -18.668,4.699 l 0,10.782 131.957,0 0,-10.782 c -13.128,-0.585 -14.671,-2.05 -19.593,-4.492 -8.227,-4.199 -12.321,-12.578 -12.321,-25.058 l 0,-204.27 c 0,-11.758 3.297,-19.668 9.864,-23.64 6.562,-3.926 8.922,-5.938 22.05,-5.938 l 0,-10.754 -131.957,0 0,10.754"
         style="fill:#ffffff;fill-opacity:1;fill-rule:nonzero;stroke:none"
         id="path54"
         inkscape:connector-curvature="0" /><path
         d="m 352.902,424.957 c 11.907,0.281 12.821,1.707 18.047,4.305 8.5,4.375 12.754,12.785 12.754,25.273 l 0,204.27 c 0,12.324 -4.023,20.664 -12.137,24.851 -4.921,2.551 -6.054,4.114 -18.664,4.699 l 0,10.782 131.953,0 0,-10.782 c -13.125,-0.585 -14.667,-2.05 -19.589,-4.492 -8.219,-4.199 -12.313,-12.578 -12.313,-25.058 l 0,-204.27 c 0,-11.758 3.274,-19.668 9.856,-23.64 6.57,-3.926 8.921,-5.938 22.046,-5.938 l 0,-10.754 -131.953,0 0,10.754"
         style="fill:#ffffff;fill-opacity:1;fill-rule:nonzero;stroke:none"
         id="path56"
         inkscape:connector-curvature="0" /><path
         d="m 202.789,424.957 c 11.899,0.281 12.848,1.707 18.024,4.305 8.5,4.375 12.777,12.785 12.777,25.273 l 0,204.27 c 0,12.324 -4.035,20.664 -12.11,24.851 -4.972,2.551 -6.089,4.114 -18.691,4.699 l 0,10.782 131.957,0 0,-10.782 c -13.129,-0.585 -14.695,-2.05 -19.605,-4.492 -8.215,-4.199 -12.297,-12.578 -12.297,-25.058 l 0,-204.27 c 0,-11.758 3.269,-19.668 9.828,-23.64 6.582,-3.926 8.945,-5.938 22.074,-5.938 l 0,-10.754 -131.957,0 0,10.754"
         style="fill:#ffffff;fill-opacity:1;fill-rule:nonzero;stroke:none"
         id="path58"
         inkscape:connector-curvature="0" /><path
         d="m 1104.39,336.234 0,121.692 24.57,0 0,-47.903 48.14,0 0,47.903 24.57,0 0,-121.692 -24.57,0 0,53.204 -48.14,0 0,-53.204 -24.57,0"
         style="fill:#231f20;fill-opacity:1;fill-rule:nonzero;stroke:none"
         id="path60"
         inkscape:connector-curvature="0" /><path
         d="m 1245.42,380.316 c 0,-8.75 2.07,-15.449 6.22,-20.097 4.15,-4.649 9.27,-6.973 15.36,-6.973 6.09,0 11.19,2.324 15.31,6.973 4.13,4.648 6.19,11.406 6.19,20.254 0,8.632 -2.06,15.273 -6.19,19.922 -4.12,4.648 -9.22,6.972 -15.31,6.972 -6.09,0 -11.21,-2.324 -15.36,-6.972 -4.15,-4.649 -6.22,-11.336 -6.22,-20.079 z m -23.91,1.243 c 0,7.742 1.91,15.242 5.73,22.488 3.82,7.258 9.23,12.793 16.22,16.601 7,3.829 14.82,5.735 23.45,5.735 13.34,0 24.27,-4.328 32.79,-12.988 8.52,-8.665 12.79,-19.61 12.79,-32.832 0,-13.34 -4.31,-24.395 -12.91,-33.165 -8.61,-8.769 -19.44,-13.156 -32.5,-13.156 -8.08,0 -15.79,1.828 -23.12,5.481 -7.33,3.652 -12.9,9.004 -16.72,16.062 -3.82,7.051 -5.73,15.645 -5.73,25.774"
         style="fill:#231f20;fill-opacity:1;fill-rule:nonzero;stroke:none"
         id="path62"
         inkscape:connector-curvature="0" /><path
         d="m 1329.01,424.391 21.49,0 0,-12.043 c 7.7,9.355 16.86,14.035 27.48,14.035 5.65,0 10.55,-1.164 14.69,-3.488 4.16,-2.325 7.56,-5.84 10.22,-10.547 3.87,4.707 8.04,8.222 12.54,10.547 4.47,2.324 9.26,3.488 14.35,3.488 6.48,0 11.95,-1.32 16.44,-3.945 4.48,-2.629 7.83,-6.485 10.05,-11.575 1.6,-3.769 2.4,-9.851 2.4,-18.261 l 0,-56.368 -23.32,0 0,50.391 c 0,8.742 -0.81,14.387 -2.41,16.934 -2.16,3.32 -5.48,4.98 -9.97,4.98 -3.26,0 -6.33,-0.996 -9.2,-2.988 -2.89,-1.992 -4.97,-4.91 -6.24,-8.758 -1.26,-3.848 -1.91,-9.922 -1.91,-18.223 l 0,-42.336 -23.32,0 0,48.313 c 0,8.574 -0.41,14.109 -1.25,16.601 -0.82,2.489 -2.11,4.344 -3.86,5.555 -1.74,1.223 -4.11,1.836 -7.1,1.836 -3.59,0 -6.82,-0.976 -9.7,-2.91 -2.88,-1.934 -4.95,-4.727 -6.19,-8.379 -1.25,-3.652 -1.86,-9.715 -1.86,-18.184 l 0,-42.832 -23.33,0 0,88.157"
         style="fill:#231f20;fill-opacity:1;fill-rule:nonzero;stroke:none"
         id="path64"
         inkscape:connector-curvature="0" /><path
         d="m 1534.28,387.867 c -0.16,6.746 -1.9,11.883 -5.22,15.399 -3.32,3.515 -7.37,5.273 -12.13,5.273 -5.09,0 -9.3,-1.855 -12.62,-5.566 -3.32,-3.711 -4.95,-8.739 -4.89,-15.106 l 34.86,0 z m -1.33,-23.574 23.25,-3.898 c -2.99,-8.524 -7.71,-15.02 -14.15,-19.473 -6.45,-4.453 -14.52,-6.68 -24.2,-6.68 -15.33,0 -26.67,5.012 -34.04,15.02 -5.81,8.027 -8.72,18.156 -8.72,30.39 0,14.61 3.83,26.047 11.47,34.317 7.63,8.273 17.28,12.414 28.96,12.414 13.12,0 23.47,-4.328 31.05,-12.988 7.58,-8.665 11.2,-21.934 10.87,-39.805 l -58.44,0 c 0.18,-6.914 2.05,-12.297 5.64,-16.145 3.61,-3.847 8.09,-5.769 13.46,-5.769 3.65,0 6.72,0.996 9.21,2.988 2.49,1.992 4.38,5.203 5.64,9.629"
         style="fill:#231f20;fill-opacity:1;fill-rule:nonzero;stroke:none"
         id="path66"
         inkscape:connector-curvature="0" /><path
         d="m 1624.51,336.234 0,120.696 24.57,0 0,-100.188 61.09,0 0,-20.508 -85.66,0"
         style="fill:#231f20;fill-opacity:1;fill-rule:nonzero;stroke:none"
         id="path68"
         inkscape:connector-curvature="0" /><path
         d="m 1779.91,387.867 c -0.17,6.746 -1.91,11.883 -5.23,15.399 -3.32,3.515 -7.36,5.273 -12.13,5.273 -5.08,0 -9.29,-1.855 -12.61,-5.566 -3.32,-3.711 -4.95,-8.739 -4.9,-15.106 l 34.87,0 z m -1.33,-23.574 23.24,-3.898 c -2.99,-8.524 -7.7,-15.02 -14.15,-19.473 -6.44,-4.453 -14.51,-6.68 -24.2,-6.68 -15.33,0 -26.67,5.012 -34.03,15.02 -5.81,8.027 -8.72,18.156 -8.72,30.39 0,14.61 3.83,26.047 11.46,34.317 7.64,8.273 17.29,12.414 28.97,12.414 13.11,0 23.46,-4.328 31.04,-12.988 7.58,-8.665 11.2,-21.934 10.87,-39.805 l -58.44,0 c 0.18,-6.914 2.06,-12.297 5.65,-16.145 3.6,-3.847 8.08,-5.769 13.46,-5.769 3.65,0 6.71,0.996 9.21,2.988 2.49,1.992 4.37,5.203 5.64,9.629"
         style="fill:#231f20;fill-opacity:1;fill-rule:nonzero;stroke:none"
         id="path70"
         inkscape:connector-curvature="0" /><path
         d="m 1902.26,336.234 -23.32,0 0,44.993 c 0,9.519 -0.5,15.671 -1.49,18.464 -1,2.793 -2.62,4.973 -4.86,6.524 -2.24,1.543 -4.94,2.324 -8.09,2.324 -4.05,0 -7.67,-1.113 -10.87,-3.32 -3.21,-2.215 -5.41,-5.156 -6.6,-8.809 -1.19,-3.652 -1.79,-10.398 -1.79,-20.254 l 0,-39.922 -23.33,0 0,88.157 21.67,0 0,-12.95 c 7.69,9.961 17.37,14.942 29.05,14.942 5.15,0 9.86,-0.93 14.11,-2.785 4.26,-1.856 7.48,-4.219 9.67,-7.09 2.19,-2.879 3.71,-6.153 4.57,-9.805 0.86,-3.652 1.28,-8.875 1.28,-15.683 l 0,-54.786"
         style="fill:#231f20;fill-opacity:1;fill-rule:nonzero;stroke:none"
         id="path72"
         inkscape:connector-curvature="0" /><path
         d="m 1944.53,382.223 c 0,-9.407 1.3,-16.211 3.89,-20.422 3.76,-6.082 9.03,-9.129 15.77,-9.129 5.38,0 9.94,2.285 13.7,6.844 3.77,4.57 5.64,11.386 5.64,20.468 0,10.118 -1.82,17.414 -5.47,21.868 -3.65,4.453 -8.33,6.687 -14.03,6.687 -5.54,0 -10.17,-2.207 -13.91,-6.601 -3.73,-4.403 -5.59,-10.977 -5.59,-19.715 z m 62.24,-45.989 -21.66,0 0,12.95 c -3.59,-5.039 -7.84,-8.789 -12.74,-11.25 -4.89,-2.461 -9.84,-3.692 -14.82,-3.692 -10.12,0 -18.79,4.082 -26.02,12.246 -7.22,8.164 -10.83,19.551 -10.83,34.16 0,14.942 3.51,26.301 10.55,34.075 7.02,7.773 15.9,11.66 26.64,11.66 9.85,0 18.37,-4.094 25.56,-12.285 l 0,43.828 23.32,0 0,-121.692"
         style="fill:#231f20;fill-opacity:1;fill-rule:nonzero;stroke:none"
         id="path74"
         inkscape:connector-curvature="0" /><path
         d="m 2082.15,387.867 c -0.16,6.746 -1.9,11.883 -5.22,15.399 -3.32,3.515 -7.36,5.273 -12.13,5.273 -5.09,0 -9.3,-1.855 -12.62,-5.566 -3.32,-3.711 -4.95,-8.739 -4.89,-15.106 l 34.86,0 z m -1.32,-23.574 23.24,-3.898 c -2.99,-8.524 -7.71,-15.02 -14.15,-19.473 -6.45,-4.453 -14.51,-6.68 -24.2,-6.68 -15.33,0 -26.67,5.012 -34.03,15.02 -5.82,8.027 -8.73,18.156 -8.73,30.39 0,14.61 3.83,26.047 11.47,34.317 7.64,8.273 17.28,12.414 28.96,12.414 13.12,0 23.47,-4.328 31.05,-12.988 7.58,-8.665 11.2,-21.934 10.87,-39.805 l -58.44,0 c 0.18,-6.914 2.05,-12.297 5.65,-16.145 3.6,-3.847 8.08,-5.769 13.45,-5.769 3.65,0 6.72,0.996 9.21,2.988 2.49,1.992 4.38,5.203 5.65,9.629"
         style="fill:#231f20;fill-opacity:1;fill-rule:nonzero;stroke:none"
         id="path76"
         inkscape:connector-curvature="0" /><path
         d="m 2146.66,336.234 -23.32,0 0,88.157 21.66,0 0,-12.532 c 3.71,5.918 7.04,9.817 10,11.7 2.95,1.886 6.32,2.824 10.08,2.824 5.32,0 10.43,-1.465 15.36,-4.406 l -7.22,-20.332 c -3.93,2.55 -7.58,3.82 -10.96,3.82 -3.26,0 -6.03,-0.899 -8.3,-2.695 -2.27,-1.797 -4.05,-5.051 -5.35,-9.758 -1.3,-4.707 -1.95,-14.551 -1.95,-29.551 l 0,-27.227"
         style="fill:#231f20;fill-opacity:1;fill-rule:nonzero;stroke:none"
         id="path78"
         inkscape:connector-curvature="0" /><path
         d="m 2182.26,361.391 23.41,3.566 c 1,-4.543 3.02,-7.98 6.06,-10.332 3.04,-2.355 7.31,-3.527 12.78,-3.527 6.03,0 10.57,1.105 13.61,3.32 2.05,1.543 3.08,3.625 3.08,6.223 0,1.765 -0.56,3.23 -1.66,4.402 -1.17,1.105 -3.76,2.129 -7.81,3.066 -18.81,4.153 -30.74,7.942 -35.78,11.368 -6.97,4.765 -10.45,11.378 -10.45,19.843 0,7.637 3.01,14.055 9.05,19.258 6.03,5.207 15.38,7.805 28.05,7.805 12.06,0 21.03,-1.965 26.9,-5.891 5.87,-3.933 9.9,-9.746 12.12,-17.441 l -22,-4.063 c -0.94,3.43 -2.73,6.055 -5.36,7.891 -2.62,1.816 -6.37,2.734 -11.24,2.734 -6.15,0 -10.54,-0.859 -13.2,-2.578 -1.77,-1.211 -2.66,-2.793 -2.66,-4.726 0,-1.661 0.78,-3.067 2.33,-4.239 2.1,-1.543 9.36,-3.73 21.78,-6.55 12.43,-2.825 21.11,-6.282 26.03,-10.383 4.87,-4.141 7.3,-9.93 7.3,-17.344 0,-8.074 -3.37,-15.02 -10.12,-20.84 -6.75,-5.801 -16.74,-8.711 -29.97,-8.711 -12,0 -21.51,2.434 -28.51,7.305 -7,4.875 -11.58,11.484 -13.74,19.844"
         style="fill:#231f20;fill-opacity:1;fill-rule:nonzero;stroke:none"
         id="path80"
         inkscape:connector-curvature="0" /><path
         d="m 2333.08,336.234 0,120.696 24.57,0 0,-100.188 61.1,0 0,-20.508 -85.67,0"
         style="fill:#231f20;fill-opacity:1;fill-rule:nonzero;stroke:none"
         id="path82"
         inkscape:connector-curvature="0" /><path
         d="m 2476.53,424.391 0,-18.594 -15.94,0 0,-35.527 c 0,-7.2 0.16,-11.387 0.46,-12.579 0.3,-1.191 1,-2.168 2.07,-2.941 1.08,-0.781 2.39,-1.172 3.95,-1.172 2.15,0 5.28,0.754 9.37,2.246 l 1.99,-18.094 c -5.42,-2.324 -11.56,-3.488 -18.41,-3.488 -4.21,0 -8,0.703 -11.38,2.121 -3.38,1.407 -5.85,3.231 -7.43,5.477 -1.58,2.238 -2.67,5.273 -3.28,9.082 -0.49,2.715 -0.75,8.195 -0.75,16.445 l 0,38.43 -10.7,0 0,18.594 10.7,0 0,17.507 23.41,13.614 0,-31.121 15.94,0"
         style="fill:#231f20;fill-opacity:1;fill-rule:nonzero;stroke:none"
         id="path84"
         inkscape:connector-curvature="0" /><path
         d="m 2511.31,382.223 c 0,-9.407 1.3,-16.211 3.9,-20.422 3.76,-6.082 9.02,-9.129 15.77,-9.129 5.37,0 9.93,2.285 13.69,6.844 3.77,4.57 5.65,11.386 5.65,20.468 0,10.118 -1.82,17.414 -5.47,21.868 -3.65,4.453 -8.33,6.687 -14.03,6.687 -5.54,0 -10.17,-2.207 -13.91,-6.601 -3.73,-4.403 -5.6,-10.977 -5.6,-19.715 z m 62.25,-45.989 -21.66,0 0,12.95 c -3.59,-5.039 -7.84,-8.789 -12.74,-11.25 -4.9,-2.461 -9.84,-3.692 -14.82,-3.692 -10.13,0 -18.8,4.082 -26.02,12.246 -7.22,8.164 -10.83,19.551 -10.83,34.16 0,14.942 3.51,26.301 10.54,34.075 7.02,7.773 15.91,11.66 26.64,11.66 9.86,0 18.37,-4.094 25.57,-12.285 l 0,43.828 23.32,0 0,-121.692"
         style="fill:#231f20;fill-opacity:1;fill-rule:nonzero;stroke:none"
         id="path86"
         inkscape:connector-curvature="0" /><path
         d="m 2596.56,336.234 23.3203,0 0,23.3203 -23.3203,0 0,-23.3203 z"
         style="fill:#231f20;fill-opacity:1;fill-rule:nonzero;stroke:none"
         id="path88"
         inkscape:connector-curvature="0" /><path
         d="m 1005.27,296.234 1705,0"
         style="fill:#231f20;fill-opacity:1;fill-rule:nonzero;stroke:none"
         id="path90"
         inkscape:connector-curvature="0" /><path
         d="m 1005.27,296.234 1705,0"
         style="fill:none;stroke:#8e0a26;stroke-width:20;stroke-linecap:butt;stroke-linejoin:miter;stroke-miterlimit:4;stroke-dasharray:none;stroke-opacity:1"
         id="path92"
         inkscape:connector-curvature="0" /><path
         d="m 1151.29,171.598 0,-25.325 c -14.49,-7.683 -29.68,-11.531 -45.57,-11.531 -20.58,0 -36.97,5.684 -49.18,17.059 -12.2,11.367 -18.3,25.383 -18.3,42.043 0,16.66 6.43,30.789 19.29,42.41 12.88,11.621 29.68,17.441 50.43,17.441 16.55,0 30.55,-3.406 42.01,-10.215 l 0,-25.82 c -14.06,7.922 -27.37,11.875 -39.93,11.875 -12.34,0 -22.43,-3.308 -30.26,-9.922 -7.83,-6.609 -11.74,-15.039 -11.74,-25.273 0,-10.293 3.86,-18.789 11.57,-25.488 7.73,-6.688 17.62,-10.039 29.68,-10.039 5.98,0 11.74,0.792 17.27,2.363 5.53,1.582 13.78,5.051 24.73,10.422"
         style="fill:#8e0a26;fill-opacity:1;fill-rule:nonzero;stroke:none"
         id="path94"
         inkscape:connector-curvature="0" /><path
         d="m 1262.69,157.484 0,-21.25 -88.4,0 0,115.957 28.89,0 0,-94.707 59.51,0"
         style="fill:#8e0a26;fill-opacity:1;fill-rule:nonzero;stroke:none"
         id="path96"
         inkscape:connector-curvature="0" /><path
         d="m 1279.88,136.234 28.8906,0 0,115.957 -28.8906,0 0,-115.957 z"
         style="fill:#8e0a26;fill-opacity:1;fill-rule:nonzero;stroke:none"
         id="path98"
         inkscape:connector-curvature="0" /><path
         d="m 1452.95,252.191 0,-115.957 -24.4,0 -64,74.297 0,-74.297 -28.89,0 0,115.957 26.48,0 61.93,-70.878 0,70.878 28.88,0"
         style="fill:#8e0a26;fill-opacity:1;fill-rule:nonzero;stroke:none"
         id="path100"
         inkscape:connector-curvature="0" /><path
         d="m 1583.69,252.191 0,-21.25 -42,0 0,-94.707 -28.88,0 0,94.707 -42.01,0 0,21.25 112.89,0"
         style="fill:#8e0a26;fill-opacity:1;fill-rule:nonzero;stroke:none"
         id="path102"
         inkscape:connector-curvature="0" /><path
         d="m 1651.75,158.813 c 10.96,0 19.79,3.253 26.49,9.757 6.7,6.504 10.04,15.039 10.04,25.606 0,10.625 -3.34,19.168 -10.04,25.652 -6.7,6.465 -15.53,9.707 -26.49,9.707 -11,0 -19.87,-3.242 -26.6,-9.707 -6.72,-6.484 -10.08,-15.027 -10.08,-25.652 0,-10.567 3.36,-19.102 10.08,-25.606 6.73,-6.504 15.6,-9.757 26.6,-9.757 z m 0,94.882 c 19.77,0 35.76,-5.965 47.99,-17.89 12.23,-11.922 18.34,-25.801 18.34,-41.629 0,-16.047 -6.2,-29.973 -18.59,-41.75 -12.39,-11.797 -28.3,-17.684 -47.74,-17.684 -19.64,0 -35.63,5.867 -47.97,17.598 -12.34,11.726 -18.51,25.672 -18.51,41.836 0,15.879 6.13,29.773 18.39,41.668 12.25,11.894 28.29,17.851 48.09,17.851"
         style="fill:#8e0a26;fill-opacity:1;fill-rule:nonzero;stroke:none"
         id="path104"
         inkscape:connector-curvature="0" /><path
         d="m 1856.46,252.191 0,-115.957 -24.4,0 -64.01,74.297 0,-74.297 -28.88,0 0,115.957 26.48,0 61.92,-70.878 0,70.878 28.89,0"
         style="fill:#8e0a26;fill-opacity:1;fill-rule:nonzero;stroke:none"
         id="path106"
         inkscape:connector-curvature="0" /><path
         d="m 1994.69,210.355 -35.9,-75.613 -12.45,0 -50.96,117.449 30.68,0 27.29,-64.011 29.77,64.011 23.27,0 29.81,-64.011 27.08,64.011 30.65,0 -50.71,-117.449 -12.45,0 -36.08,75.613"
         style="fill:#8e0a26;fill-opacity:1;fill-rule:nonzero;stroke:none"
         id="path108"
         inkscape:connector-curvature="0" /><path
         d="m 2107.87,136.234 28.8789,0 0,115.957 -28.8789,0 0,-115.957 z"
         style="fill:#8e0a26;fill-opacity:1;fill-rule:nonzero;stroke:none"
         id="path110"
         inkscape:connector-curvature="0" /><path
         d="m 2251.89,157.484 0,-21.25 -88.4,0 0,115.957 28.89,0 0,-94.707 59.51,0"
         style="fill:#8e0a26;fill-opacity:1;fill-rule:nonzero;stroke:none"
         id="path112"
         inkscape:connector-curvature="0" /><path
         d="m 2365.44,252.191 -37.77,-54.531 51.23,-61.426 -36.11,0 -45.99,54.375 0,-54.375 -28.88,0 0,115.957 28.88,0 0,-52.207 36.88,52.207 31.76,0"
         style="fill:#8e0a26;fill-opacity:1;fill-rule:nonzero;stroke:none"
         id="path114"
         inkscape:connector-curvature="0" /><path
         d="m 2391.34,136.234 28.8906,0 0,115.957 -28.8906,0 0,-115.957 z"
         style="fill:#8e0a26;fill-opacity:1;fill-rule:nonzero;stroke:none"
         id="path116"
         inkscape:connector-curvature="0" /><path
         d="m 2564.41,252.191 0,-115.957 -24.4,0 -64.01,74.297 0,-74.297 -28.89,0 0,115.957 26.49,0 61.92,-70.878 0,70.878 28.89,0"
         style="fill:#8e0a26;fill-opacity:1;fill-rule:nonzero;stroke:none"
         id="path118"
         inkscape:connector-curvature="0" /><path
         d="m 2669.18,244.73 0,-22.664 c -15.39,6.914 -27.64,10.379 -36.78,10.379 -5.2,0 -9.34,-0.879 -12.4,-2.617 -3.08,-1.746 -4.61,-4.051 -4.61,-6.933 0,-2.215 1.1,-4.317 3.32,-6.309 2.21,-1.992 7.6,-4.57 16.19,-7.715 8.57,-3.164 15.43,-6.094 20.58,-8.808 5.14,-2.704 9.58,-6.524 13.32,-11.446 3.73,-4.929 5.61,-11.152 5.61,-18.679 0,-10.735 -4.08,-19.29 -12.25,-25.657 -8.16,-6.355 -18.91,-9.539 -32.24,-9.539 -14.4,0 -28.34,3.738 -41.84,11.199 l 0,24.993 c 7.75,-5.207 14.61,-8.996 20.59,-11.379 5.97,-2.371 12.3,-3.563 19,-3.563 11.35,0 17.01,3.563 17.01,10.703 0,2.43 -1.13,4.727 -3.4,6.883 -2.27,2.16 -7.73,4.785 -16.39,7.883 -8.66,3.094 -15.53,5.977 -20.59,8.633 -5.07,2.656 -9.43,6.445 -13.11,11.375 -3.68,4.922 -5.52,11.23 -5.52,18.926 0,9.96 4.01,18.007 12.04,24.121 8.02,6.113 18.75,9.179 32.21,9.179 12.39,0 25.48,-2.988 39.26,-8.965"
         style="fill:#8e0a26;fill-opacity:1;fill-rule:nonzero;stroke:none"
         id="path120"
         inkscape:connector-curvature="0" /><path
         d="m 1192.41,96.7344 31.37,-37.6641 31.38,37.6641 16.48,0 0,-95.49612 -18.46,0 0,67.05862 -0.55,0 -27.61,-33.6367 -2.6,0 -27.62,33.6367 -0.55,0 0,-67.05862 -18.45,0 0,95.49612 16.61,0"
         style="fill:#8e0a26;fill-opacity:1;fill-rule:nonzero;stroke:none"
         id="path122"
         inkscape:connector-curvature="0" /><path
         d="m 1323.9,48.9492 c 0,-6.3398 1.43,-12.0273 4.3,-17.0898 2.87,-5.0586 6.87,-8.9688 11.99,-11.7578 5.14,-2.7813 10.94,-4.1719 17.4,-4.1719 9.81,0 17.85,3.082 24.16,9.2305 6.33,6.1484 9.48,14.0781 9.48,23.789 0,6.3399 -1.43,12.0391 -4.28,17.1289 -2.83,5.0782 -6.86,9.0039 -12.03,11.7891 -5.16,2.7812 -10.98,4.168 -17.46,4.168 -6.47,0 -12.29,-1.4063 -17.46,-4.1993 -5.18,-2.8125 -9.15,-6.7265 -11.93,-11.7578 -2.78,-5.039 -4.17,-10.75 -4.17,-17.1289 z m 33.69,49.0156 c 9.91,0 18.79,-2.0429 26.7,-6.125 7.91,-4.0703 14.2,-9.9492 18.91,-17.6367 4.69,-7.6758 7.03,-16.0937 7.03,-25.2539 0,-8.9375 -2.29,-17.2187 -6.88,-24.8398 C 1398.78,16.4688 1392.5,10.5391 1384.49,6.33203 1376.5,2.10938 1367.5,0 1357.46,0 c -9.89,0 -18.87,2.14063 -26.97,6.42969 -8.09,4.28911 -14.39,10.17971 -18.9,17.67971 -4.51,7.4922 -6.77,15.7695 -6.77,24.8398 0,8.75 2.26,16.9727 6.77,24.6797 4.51,7.7031 10.73,13.6797 18.66,17.9375 7.93,4.2695 17.05,6.3984 27.34,6.3984"
         style="fill:#8e0a26;fill-opacity:1;fill-rule:nonzero;stroke:none"
         id="path124"
         inkscape:connector-curvature="0" /><path
         d="m 1473.71,55.9883 c 4.83,0 8.62,1.2109 11.38,3.6211 2.76,2.4219 4.13,5.7265 4.13,9.9179 0,4.375 -1.36,7.6446 -4.1,9.8125 -2.73,2.1602 -6.63,3.2422 -11.69,3.2422 l -11.48,0 0,-26.5937 11.76,0 z m 4.17,40.7461 c 8.97,0 16.29,-2.4805 21.94,-7.4531 5.65,-4.9688 8.48,-11.4336 8.48,-19.4141 0,-5.418 -1.41,-10.1563 -4.2,-14.1758 -2.82,-4.043 -6.97,-7.2226 -12.48,-9.543 3.05,-1.6367 5.76,-3.8789 8.13,-6.6992 2.37,-2.8203 5.31,-7.5898 8.82,-14.289 5.83,-11.5704 10.17,-19.55082 12.99,-23.92192 l -20.58,0 c -1.41,2.09375 -3.33,5.44141 -5.74,10.04302 -5.28,10.1679 -9.16,17.0195 -11.62,20.539 -2.46,3.5391 -4.84,6.0508 -7.11,7.5195 -2.28,1.4805 -4.9,2.2305 -7.86,2.2305 l -6.7,0 0,-40.33202 -18.46,0 0,95.49612 34.39,0"
         style="fill:#8e0a26;fill-opacity:1;fill-rule:nonzero;stroke:none"
         id="path126"
         inkscape:connector-curvature="0" /><path
         d="m 1621.87,96.7344 0,-14.4258 -33.91,0 0,-81.07032 -18.45,0 0,81.07032 -33.91,0 0,14.4258 86.27,0"
         style="fill:#8e0a26;fill-opacity:1;fill-rule:nonzero;stroke:none"
         id="path128"
         inkscape:connector-curvature="0" /><path
         d="m 1696.34,97.9648 c 11.76,0 23.43,-2.6171 35,-7.8632 l 0,-16.8828 c -11.57,5.8789 -22.97,8.8164 -34.18,8.8164 -6.97,0 -13.17,-1.3868 -18.59,-4.168 -5.42,-2.7852 -9.63,-6.7774 -12.61,-12.0039 -2.99,-5.2149 -4.48,-11.0352 -4.48,-17.4649 0,-9.75 3.25,-17.5898 9.74,-23.5468 6.5,-5.9414 15.05,-8.9219 25.67,-8.9219 2.92,0 5.71,0.2617 8.37,0.75 2.68,0.5 5.85,1.4609 9.54,2.8789 l 0,15.8516 -15.79,0 0,14.4296 34.25,0 0,-39.3789 C 1728.56,7.17969 1722.93,4.60938 1716.33,2.78125 1709.75,0.921875 1702.91,0 1695.8,0 c -10.07,0 -19.2,2.07031 -27.38,6.23047 -8.18,4.14843 -14.57,9.96093 -19.14,17.42973 -4.59,7.4687 -6.87,15.8086 -6.87,25.0195 0,9.3398 2.31,17.7891 6.93,25.3594 4.63,7.5664 11.08,13.4453 19.36,17.6367 8.26,4.1875 17.48,6.289 27.64,6.289"
         style="fill:#8e0a26;fill-opacity:1;fill-rule:nonzero;stroke:none"
         id="path130"
         inkscape:connector-curvature="0" /><path
         d="m 1793.25,38.4883 30.83,0 -16.14,37.8047 -14.69,-37.8047 z m 24.06,58.2461 42.18,-95.49612 -19.48,0 -9.92,23.24222 -42.45,0 -9.23,-23.24222 -19.34,0 39.37,95.49612 18.87,0"
         style="fill:#8e0a26;fill-opacity:1;fill-rule:nonzero;stroke:none"
         id="path132"
         inkscape:connector-curvature="0" /><path
         d="m 1932.59,97.9648 c 11.76,0 23.43,-2.6171 35,-7.8632 l 0,-16.8828 c -11.57,5.8789 -22.97,8.8164 -34.18,8.8164 -6.97,0 -13.17,-1.3868 -18.59,-4.168 -5.42,-2.7852 -9.63,-6.7774 -12.61,-12.0039 -2.99,-5.2149 -4.48,-11.0352 -4.48,-17.4649 0,-9.75 3.25,-17.5898 9.74,-23.5468 6.5,-5.9414 15.05,-8.9219 25.67,-8.9219 2.92,0 5.71,0.2617 8.37,0.75 2.68,0.5 5.85,1.4609 9.54,2.8789 l 0,15.8516 -15.79,0 0,14.4296 34.25,0 0,-39.3789 C 1964.81,7.17969 1959.18,4.60938 1952.58,2.78125 1946,0.921875 1939.16,0 1932.05,0 c -10.07,0 -19.2,2.07031 -27.38,6.23047 -8.18,4.14843 -14.57,9.96093 -19.14,17.42973 -4.59,7.4687 -6.87,15.8086 -6.87,25.0195 0,9.3398 2.31,17.7891 6.93,25.3594 4.63,7.5664 11.08,13.4453 19.36,17.6367 8.26,4.1875 17.48,6.289 27.64,6.289"
         style="fill:#8e0a26;fill-opacity:1;fill-rule:nonzero;stroke:none"
         id="path134"
         inkscape:connector-curvature="0" /><path
         d="m 2066.88,96.7344 0,-14.4258 -43.27,0 0,-25.0898 41.42,0 0,-14.418 -41.42,0 0,-27.1406 44.23,0 0,-14.42192 -62.69,0 0,95.49612 61.73,0"
         style="fill:#8e0a26;fill-opacity:1;fill-rule:nonzero;stroke:none"
         id="path136"
         inkscape:connector-curvature="0" /><path
         d="m 2225.34,96.7344 0,-14.4258 -33.91,0 0,-81.07032 -18.46,0 0,81.07032 -33.9,0 0,14.4258 86.27,0"
         style="fill:#8e0a26;fill-opacity:1;fill-rule:nonzero;stroke:none"
         id="path138"
         inkscape:connector-curvature="0" /><path
         d="m 2317.04,96.7344 0,-14.4258 -43.27,0 0,-25.0898 41.42,0 0,-14.418 -41.42,0 0,-27.1406 44.22,0 0,-14.42192 -62.68,0 0,95.49612 61.73,0"
         style="fill:#8e0a26;fill-opacity:1;fill-rule:nonzero;stroke:none"
         id="path140"
         inkscape:connector-curvature="0" /><path
         d="m 2375.51,38.4883 30.83,0 -16.13,37.8047 -14.7,-37.8047 z m 24.07,58.2461 42.17,-95.49612 -19.48,0 -9.91,23.24222 -42.45,0 -9.23,-23.24222 -19.35,0 39.38,95.49612 18.87,0"
         style="fill:#8e0a26;fill-opacity:1;fill-rule:nonzero;stroke:none"
         id="path142"
         inkscape:connector-curvature="0" /><path
         d="m 2485.54,96.7344 31.38,-37.6641 31.38,37.6641 16.47,0 0,-95.49612 -18.46,0 0,67.05862 -0.54,0 -27.62,-33.6367 -2.6,0 -27.61,33.6367 -0.55,0 0,-67.05862 -18.46,0 0,95.49612 16.61,0"
         style="fill:#8e0a26;fill-opacity:1;fill-rule:nonzero;stroke:none"
         id="path144"
         inkscape:connector-curvature="0" /><g
         id="g146"
         transform="scale(10,10)"><text
           transform="matrix(1,0,0,-1,281.527,71.6234)"
           style="font-variant:normal;font-weight:normal;font-size:12px;font-family:ArialMT;-inkscape-font-specification:ArialMT;writing-mode:lr-tb;fill:#231f20;fill-opacity:1;fill-rule:nonzero;stroke:none"
           id="text148"><tspan
             x="0"
             y="0"
             id="tspan150">®</tspan></text>
</g></g></g></svg>
